<svg width="256" height="256" viewBox="0 0 256 256" fill="none" xmlns="http://www.w3.org/2000/svg">
<circle cx="128" cy="29.5" r="4.5" fill="#F3F6F8"/>
<circle cx="112.495" cy="30.6776" r="4.5" transform="rotate(-10 112.495 30.6776)" fill="#F3F6F8"/>
<circle cx="97.3361" cy="34.7164" r="4.5" transform="rotate(-20 97.3361 34.7164)" fill="#F3F6F8"/>
<circle cx="83.1085" cy="41.3268" r="4.5" transform="rotate(-30 83.1085 41.3268)" fill="#F3F6F8"/>
<circle cx="70.2455" cy="50.3076" r="4.5" transform="rotate(-40 70.2455 50.3076)" fill="#F3F6F8"/>
<circle cx="59.1366" cy="61.3853" r="4.5" transform="rotate(-50 59.1366 61.3853)" fill="#F3F6F8"/>
<circle cx="197.216" cy="177.248" r="4.5" transform="rotate(-50 197.216 177.248)" fill="#F3F6F8"/>
<circle cx="50.1203" cy="74.2235" r="4.5" transform="rotate(-60 50.1203 74.2235)" fill="#F3F6F8"/>
<circle cx="206.222" cy="164.349" r="4.5" transform="rotate(-60 206.222 164.349)" fill="#F3F6F8"/>
<circle cx="43.4706" cy="88.433" r="4.5" transform="rotate(-70 43.4706 88.433)" fill="#F3F6F8"/>
<circle cx="212.85" cy="150.082" r="4.5" transform="rotate(-70 212.85 150.082)" fill="#F3F6F8"/>
<circle cx="39.3893" cy="103.58" r="4.5" transform="rotate(-80 39.3893 103.58)" fill="#F3F6F8"/>
<circle cx="216.901" cy="134.881" r="4.5" transform="rotate(-80 216.901 134.881)" fill="#F3F6F8"/>
<ellipse cx="38" cy="119" rx="4.5" ry="4.5" transform="rotate(-90 38 119)" fill="#F3F6F8"/>
<ellipse cx="218" cy="119" rx="4.5" ry="4.5" transform="rotate(-90 218 119)" fill="#F3F6F8"/>
<circle cx="39.3458" cy="134.838" r="4.5" transform="rotate(-100 39.3458 134.838)" fill="#F3F6F8"/>
<circle cx="216.857" cy="103.537" r="4.5" transform="rotate(-100 216.857 103.537)" fill="#F3F6F8"/>
<circle cx="43.3848" cy="149.996" r="4.5" transform="rotate(-110 43.3848 149.996)" fill="#F3F6F8"/>
<circle cx="212.764" cy="88.3475" r="4.5" transform="rotate(-110 212.764 88.3475)" fill="#F3F6F8"/>
<circle cx="49.995" cy="164.224" r="4.5" transform="rotate(-120 49.995 164.224)" fill="#F3F6F8"/>
<circle cx="206.096" cy="74.099" r="4.5" transform="rotate(-120 206.096 74.099)" fill="#F3F6F8"/>
<circle cx="58.976" cy="177.088" r="4.5" transform="rotate(-130 58.976 177.088)" fill="#F3F6F8"/>
<circle cx="197.055" cy="61.2247" r="4.5" transform="rotate(-130 197.055 61.2247)" fill="#F3F6F8"/>
<circle cx="70.0535" cy="188.196" r="4.5" transform="rotate(-140 70.0535 188.196)" fill="#F3F6F8"/>
<circle cx="185.916" cy="50.1163" r="4.5" transform="rotate(-140 185.916 50.1163)" fill="#F3F6F8"/>
<circle cx="173.017" cy="41.1112" r="4.5" transform="rotate(-150 173.017 41.1112)" fill="#F3F6F8"/>
<circle cx="158.75" cy="34.4823" r="4.5" transform="rotate(-160 158.75 34.4823)" fill="#F3F6F8"/>
<circle cx="143.549" cy="30.432" r="4.5" transform="rotate(-170 143.549 30.432)" fill="#F3F6F8"/>
<path d="M164.716 173.75C165.49 174.717 166.101 175.841 166.49 177.096C169.919 188.161 174.925 197.27 179.108 203.634C180.375 201.548 181.974 199.544 183.583 197.781C186.751 194.308 190.93 190.709 194.89 188.482C199.079 186.126 204.344 187.015 207.527 190.615C210.711 194.215 210.949 199.55 208.099 203.419C200.823 213.295 194.898 218.828 185.915 227.489C183.948 229.386 181.301 230.413 178.569 230.341C175.836 230.269 173.247 229.103 171.382 227.105L178.837 220.147C171.564 226.935 171.384 227.099 171.378 227.101C171.377 227.1 171.375 227.098 171.374 227.097C171.371 227.094 171.369 227.091 171.365 227.087C171.359 227.08 171.351 227.072 171.343 227.063C171.326 227.045 171.306 227.023 171.282 226.998C171.235 226.946 171.174 226.88 171.101 226.798C170.953 226.635 170.754 226.41 170.507 226.126C170.014 225.56 169.331 224.755 168.504 223.725C166.851 221.668 164.608 218.701 162.123 214.927C157.17 207.404 151.16 196.525 147.01 183.133C146.921 182.845 146.846 182.555 146.783 182.265C153.234 180.337 159.268 177.444 164.716 173.75ZM97.3976 177.425C103.38 180.593 109.913 182.86 116.815 184.047C113.639 191.142 109.479 197.28 105.27 202.531C101.375 202.398 97.4672 202.765 93.9845 203.507C90.0095 204.355 86.2764 205.757 83.7658 207.721C82.4309 208.766 82.1946 210.697 83.2394 212.032C84.2842 213.366 86.2139 213.601 87.549 212.557C89.007 211.416 91.7022 210.273 95.2648 209.513C98.756 208.769 102.787 208.457 106.69 208.757C114.829 209.384 120.875 212.445 122.388 217.867C122.462 218.131 122.569 218.377 122.702 218.603C122.886 220.148 122.718 221.746 122.164 223.274C120.703 227.31 116.869 229.999 112.576 230V219.802L112.575 230H76.6847C73.1219 229.999 69.817 228.14 67.9679 225.094C66.1189 222.049 65.9933 218.258 67.6369 215.097C69.465 211.582 72.3809 208.27 74.9025 205.555C76.2499 204.105 77.7244 202.579 79.173 201.075C80.6481 199.543 82.1406 197.988 83.6486 196.357C88.8815 190.697 93.9053 184.522 97.3976 177.425Z" fill="#F3F6F8"/>
<circle cx="128" cy="119.5" r="65.5" fill="#F3F6F8" stroke="#F3F6F8" stroke-width="12"/>
<path d="M123 102.5C123 114.374 121.704 124 115 124C108.296 124 107 114.374 107 102.5C107 90.6259 108.296 81 115 81C120.561 81 123 90.6259 123 102.5Z" fill="#0A0A0A"/>
<path d="M149 102.5C149 114.374 147.704 124 141 124C134.296 124 133 114.374 133 102.5C133 90.6259 134.296 81 141 81C146.561 81 149 90.6259 149 102.5Z" fill="#0A0A0A"/>
<path d="M168 119.5C168 141.591 150.091 159.5 128 159.5C105.909 159.5 88 141.591 88 119.5" stroke="#0A0A0A" stroke-width="16"/>
<path d="M168 105.5V113.5" stroke="#EB2E31" stroke-width="16"/>
<path d="M88 105.5V113.5" stroke="#EB2E31" stroke-width="16"/>
</svg>
