<svg width="256" height="256" viewBox="0 0 256 256" fill="none" xmlns="http://www.w3.org/2000/svg">
<path d="M132.5 29.5C132.5 31.9853 130.485 34 128 34C125.515 34 123.5 31.9853 123.5 29.5C123.5 27.0147 125.515 25 128 25C130.485 25 132.5 27.0147 132.5 29.5Z" fill="#0A0A0A"/>
<path d="M116.927 29.8959C117.359 32.3435 115.724 34.6774 113.277 35.109C110.829 35.5406 108.495 33.9063 108.064 31.4588C107.632 29.0113 109.266 26.6773 111.714 26.2457C114.161 25.8142 116.495 27.4484 116.927 29.8959Z" fill="#0A0A0A"/>
<path d="M101.565 33.1772C102.415 35.5126 101.211 38.0949 98.8753 38.9449C96.5399 39.7949 93.9576 38.5908 93.1076 36.2554C92.2575 33.92 93.4617 31.3377 95.7971 30.4877C98.1325 29.6377 100.715 30.8418 101.565 33.1772Z" fill="#0A0A0A"/>
<path d="M87.0056 39.0769C88.2483 41.2292 87.5108 43.9814 85.3585 45.224C83.2062 46.4666 80.4541 45.7292 79.2114 43.5769C77.9688 41.4246 78.7062 38.6724 80.8585 37.4298C83.0108 36.1871 85.763 36.9246 87.0056 39.0769Z" fill="#0A0A0A"/>
<path d="M73.6927 47.4152C75.2902 49.3191 75.0418 52.1575 73.138 53.755C71.2342 55.3525 68.3958 55.1042 66.7983 53.2003C65.2008 51.2965 65.4491 48.4581 67.3529 46.8606C69.2568 45.2631 72.0952 45.5114 73.6927 47.4152Z" fill="#0A0A0A"/>
<path d="M62.0291 57.938C63.933 59.5355 64.1813 62.3739 62.5838 64.2777C60.9863 66.1816 58.1479 66.4299 56.244 64.8324C54.3402 63.2349 54.0919 60.3965 55.6894 58.4926C57.2869 56.5888 60.1253 56.3405 62.0291 57.938Z" fill="#0A0A0A"/>
<path d="M200.109 173.8C202.013 175.398 202.261 178.236 200.663 180.14C199.066 182.044 196.227 182.292 194.324 180.695C192.42 179.097 192.171 176.259 193.769 174.355C195.366 172.451 198.205 172.203 200.109 173.8Z" fill="#0A0A0A"/>
<path d="M52.3704 70.3264C54.5227 71.5691 55.2601 74.3212 54.0175 76.4735C52.7749 78.6259 50.0227 79.3633 47.8704 78.1207C45.7181 76.878 44.9806 74.1259 46.2233 71.9735C47.4659 69.8212 50.2181 69.0838 52.3704 70.3264Z" fill="#0A0A0A"/>
<path d="M208.472 160.452C210.624 161.694 211.361 164.446 210.119 166.599C208.876 168.751 206.124 169.489 203.972 168.246C201.819 167.003 201.082 164.251 202.324 162.099C203.567 159.946 206.319 159.209 208.472 160.452Z" fill="#0A0A0A"/>
<path d="M45.0096 84.2045C47.345 85.0545 48.5492 87.6368 47.6992 89.9722C46.8491 92.3076 44.2669 93.5118 41.9315 92.6617C39.5961 91.8117 38.3919 89.2294 39.2419 86.894C40.0919 84.5586 42.6742 83.3545 45.0096 84.2045Z" fill="#0A0A0A"/>
<path d="M214.389 145.854C216.725 146.704 217.929 149.286 217.079 151.621C216.229 153.957 213.646 155.161 211.311 154.311C208.976 153.461 207.771 150.878 208.621 148.543C209.471 146.208 212.054 145.004 214.389 145.854Z" fill="#0A0A0A"/>
<path d="M40.1706 99.1488C42.6182 99.5804 44.2524 101.914 43.8208 104.362C43.3893 106.809 41.0553 108.444 38.6078 108.012C36.1603 107.581 34.526 105.247 34.9576 102.799C35.3891 100.352 37.7231 98.7172 40.1706 99.1488Z" fill="#0A0A0A"/>
<path d="M217.682 130.449C220.13 130.881 221.764 133.215 221.332 135.662C220.901 138.11 218.567 139.744 216.119 139.313C213.672 138.881 212.038 136.547 212.469 134.1C212.901 131.652 215.235 130.018 217.682 130.449Z" fill="#0A0A0A"/>
<path d="M38 114.5C40.4853 114.5 42.5 116.515 42.5 119C42.5 121.485 40.4853 123.5 38 123.5C35.5147 123.5 33.5 121.485 33.5 119C33.5 116.515 35.5147 114.5 38 114.5Z" fill="#0A0A0A"/>
<path d="M218 114.5C220.485 114.5 222.5 116.515 222.5 119C222.5 121.485 220.485 123.5 218 123.5C215.515 123.5 213.5 121.485 213.5 119C213.5 116.515 215.515 114.5 218 114.5Z" fill="#0A0A0A"/>
<path d="M38.5643 130.406C41.0119 129.974 43.3458 131.609 43.7774 134.056C44.209 136.504 42.5747 138.838 40.1272 139.269C37.6797 139.701 35.3457 138.066 34.9141 135.619C34.4826 133.171 36.1168 130.837 38.5643 130.406Z" fill="#0A0A0A"/>
<path d="M216.076 99.106C218.523 98.6745 220.857 100.309 221.289 102.756C221.72 105.204 220.086 107.538 217.639 107.969C215.191 108.401 212.857 106.767 212.426 104.319C211.994 101.872 213.628 99.5376 216.076 99.106Z" fill="#0A0A0A"/>
<path d="M41.8458 145.768C44.1812 144.918 46.7635 146.122 47.6135 148.457C48.4635 150.793 47.2594 153.375 44.924 154.225C42.5886 155.075 40.0063 153.871 39.1563 151.535C38.3062 149.2 39.5104 146.618 41.8458 145.768Z" fill="#0A0A0A"/>
<path d="M211.225 84.119C213.561 83.2689 216.143 84.4731 216.993 86.8085C217.843 89.1439 216.639 91.7262 214.304 92.5762C211.968 93.4262 209.386 92.2221 208.536 89.8867C207.686 87.5513 208.89 84.969 211.225 84.119Z" fill="#0A0A0A"/>
<path d="M47.7451 160.327C49.8974 159.084 52.6496 159.822 53.8922 161.974C55.1349 164.127 54.3974 166.879 52.2451 168.121C50.0928 169.364 47.3406 168.627 46.098 166.474C44.8554 164.322 45.5928 161.57 47.7451 160.327Z" fill="#0A0A0A"/>
<path d="M203.846 70.2019C205.998 68.9592 208.751 69.6967 209.993 71.849C211.236 74.0013 210.498 76.7535 208.346 77.9961C206.194 79.2387 203.442 78.5013 202.199 76.349C200.956 74.1967 201.694 71.4445 203.846 70.2019Z" fill="#0A0A0A"/>
<path d="M56.0835 173.64C57.9873 172.043 60.8257 172.291 62.4232 174.195C64.0207 176.099 63.7724 178.937 61.8685 180.535C59.9647 182.132 57.1263 181.884 55.5288 179.98C53.9313 178.076 54.1796 175.238 56.0835 173.64Z" fill="#0A0A0A"/>
<path d="M194.163 57.7777C196.067 56.1802 198.905 56.4285 200.502 58.3323C202.1 60.2362 201.852 63.0746 199.948 64.6721C198.044 66.2696 195.206 66.0212 193.608 64.1174C192.011 62.2136 192.259 59.3752 194.163 57.7777Z" fill="#0A0A0A"/>
<path d="M66.6063 185.304C68.2038 183.4 71.0422 183.152 72.9461 184.749C74.8499 186.347 75.0982 189.185 73.5007 191.089C71.9032 192.993 69.0648 193.241 67.161 191.644C65.2571 190.046 65.0088 187.208 66.6063 185.304Z" fill="#0A0A0A"/>
<path d="M182.469 47.2239C184.066 45.3201 186.905 45.0718 188.809 46.6693C190.712 48.2668 190.961 51.1052 189.363 53.009C187.766 54.9129 184.927 55.1612 183.024 53.5637C181.12 51.9662 180.871 49.1278 182.469 47.2239Z" fill="#0A0A0A"/>
<path d="M169.12 38.8611C170.362 36.7088 173.114 35.9713 175.267 37.214C177.419 38.4566 178.156 41.2088 176.914 43.3611C175.671 45.5134 172.919 46.2508 170.767 45.0082C168.614 43.7656 167.877 41.0134 169.12 38.8611Z" fill="#0A0A0A"/>
<path d="M154.521 32.9431C155.371 30.6077 157.954 29.4036 160.289 30.2536C162.624 31.1036 163.829 33.6859 162.979 36.0213C162.129 38.3567 159.546 39.5608 157.211 38.7108C154.875 37.8608 153.671 35.2785 154.521 32.9431Z" fill="#0A0A0A"/>
<path d="M139.117 29.6506C139.549 27.203 141.883 25.5688 144.331 26.0003C146.778 26.4319 148.412 28.7659 147.981 31.2134C147.549 33.6609 145.215 35.2952 142.768 34.8636C140.32 34.432 138.686 32.0981 139.117 29.6506Z" fill="#0A0A0A"/>
<path d="M165.132 173.463C165.933 174.472 166.565 175.644 166.969 176.948C170.265 187.584 175.026 196.406 179.099 202.705C180.312 200.826 181.761 199.034 183.212 197.443C186.405 193.943 190.625 190.307 194.644 188.046C199.038 185.574 204.563 186.506 207.903 190.283C211.243 194.06 211.492 199.657 208.502 203.716C201.196 213.631 195.242 219.193 186.262 227.85C184.198 229.84 181.421 230.918 178.555 230.842C175.689 230.767 172.973 229.543 171.016 227.447L178.837 220.148L171.992 226.533C171.079 227.385 171.017 227.44 171.012 227.443C171.012 227.442 171.009 227.44 171.008 227.439C171.005 227.435 171.001 227.432 170.998 227.428C170.991 227.421 170.984 227.413 170.975 227.403C170.958 227.385 170.938 227.363 170.914 227.336C170.866 227.284 170.804 227.216 170.729 227.133C170.58 226.968 170.378 226.741 170.129 226.455C169.632 225.884 168.945 225.074 168.114 224.039C166.453 221.972 164.2 218.992 161.705 215.203C156.733 207.651 150.698 196.73 146.531 183.281C146.441 182.991 146.364 182.699 146.3 182.408C153.099 180.433 159.441 177.387 165.132 173.463Z" fill="#0A0A0A"/>
<path d="M96.9552 177.189C103.205 180.559 110.064 182.944 117.326 184.134C113.984 191.637 109.55 198.075 105.114 203.525C101.343 203.407 97.5626 203.767 94.1934 204.485C90.2852 205.318 86.7208 206.678 84.3814 208.508C83.481 209.213 83.3223 210.515 84.0269 211.415C84.7318 212.315 86.0336 212.474 86.9342 211.77C88.5635 210.495 91.427 209.309 95.0567 208.535C98.6384 207.772 102.765 207.452 106.766 207.76C113.3 208.263 118.846 210.342 121.701 214.217C123.367 216.939 123.763 220.328 122.635 223.443C121.102 227.678 117.08 230.5 112.576 230.5H90.0518C89.9031 230.503 89.7543 230.503 89.606 230.5H76.6847C72.9467 230.5 69.4795 228.549 67.5396 225.354C65.6 222.158 65.4686 218.183 67.193 214.866C69.0558 211.284 72.0145 207.927 74.5352 205.213C75.8865 203.759 77.3653 202.229 78.8126 200.727C80.2875 199.195 81.7762 197.644 83.2804 196.017C88.5062 190.364 93.495 184.226 96.9552 177.189Z" fill="#0A0A0A"/>
<path d="M186.5 119.5C186.5 87.1913 160.309 60.9999 128 60.9999C95.6914 60.9999 69.5 87.1913 69.5 119.5C69.5 151.809 95.6914 178 128 178C160.309 178 186.5 151.809 186.5 119.5ZM200.5 119.5C200.5 159.541 168.041 192 128 192C87.9594 192 55.5 159.541 55.5 119.5C55.5 79.4593 87.9594 46.9999 128 46.9999C168.041 46.9999 200.5 79.4593 200.5 119.5Z" fill="#0A0A0A"/>
<path d="M123 102.5C123 114.374 121.704 124 115 124C108.296 124 107 114.374 107 102.5C107 90.6258 108.296 81 115 81C120.561 81 123 90.6258 123 102.5Z" fill="#0A0A0A"/>
<path d="M149 102.5C149 114.374 147.704 124 141 124C134.296 124 133 114.374 133 102.5C133 90.6258 134.296 81 141 81C146.561 81 149 90.6258 149 102.5Z" fill="#0A0A0A"/>
<path d="M96 119.5C96 137.173 110.327 151.5 128 151.5C145.673 151.5 160 137.173 160 119.5H176C176 146.01 154.51 167.5 128 167.5C101.49 167.5 80 146.01 80 119.5H96Z" fill="#0A0A0A"/>
<path d="M96 105.5V113.5H80V105.5H96ZM176 105.5V113.5H160V105.5H176Z" fill="#EB2E31"/>
</svg>
