<svg width="964" height="256" viewBox="0 0 964 256" fill="none" xmlns="http://www.w3.org/2000/svg">
<path d="M132.5 29.5C132.5 31.9853 130.485 34 128 34C125.515 34 123.5 31.9853 123.5 29.5C123.5 27.0147 125.515 25 128 25C130.485 25 132.5 27.0147 132.5 29.5Z" fill="#0A0A0A"/>
<path d="M116.927 29.8959C117.359 32.3435 115.724 34.6774 113.277 35.109C110.829 35.5406 108.495 33.9063 108.064 31.4588C107.632 29.0113 109.266 26.6773 111.714 26.2457C114.161 25.8142 116.495 27.4484 116.927 29.8959Z" fill="#0A0A0A"/>
<path d="M101.565 33.1772C102.415 35.5126 101.211 38.0949 98.8753 38.9449C96.5399 39.7949 93.9576 38.5908 93.1076 36.2554C92.2575 33.92 93.4617 31.3377 95.7971 30.4877C98.1325 29.6377 100.715 30.8418 101.565 33.1772Z" fill="#0A0A0A"/>
<path d="M87.0056 39.0769C88.2483 41.2292 87.5108 43.9814 85.3585 45.224C83.2062 46.4666 80.4541 45.7292 79.2114 43.5769C77.9688 41.4246 78.7062 38.6724 80.8585 37.4298C83.0108 36.1871 85.763 36.9246 87.0056 39.0769Z" fill="#0A0A0A"/>
<path d="M73.6927 47.4152C75.2902 49.3191 75.0418 52.1575 73.138 53.755C71.2342 55.3525 68.3958 55.1042 66.7983 53.2003C65.2008 51.2965 65.4491 48.4581 67.3529 46.8606C69.2568 45.2631 72.0952 45.5114 73.6927 47.4152Z" fill="#0A0A0A"/>
<path d="M62.0291 57.938C63.933 59.5355 64.1813 62.3739 62.5838 64.2777C60.9863 66.1816 58.1479 66.4299 56.244 64.8324C54.3402 63.2349 54.0919 60.3965 55.6894 58.4926C57.2869 56.5888 60.1253 56.3405 62.0291 57.938Z" fill="#0A0A0A"/>
<path d="M200.109 173.8C202.013 175.398 202.261 178.236 200.663 180.14C199.066 182.044 196.227 182.292 194.324 180.695C192.42 179.097 192.171 176.259 193.769 174.355C195.366 172.451 198.205 172.203 200.109 173.8Z" fill="#0A0A0A"/>
<path d="M52.3704 70.3264C54.5227 71.5691 55.2601 74.3212 54.0175 76.4735C52.7749 78.6259 50.0227 79.3633 47.8704 78.1207C45.7181 76.878 44.9806 74.1259 46.2233 71.9735C47.4659 69.8212 50.2181 69.0838 52.3704 70.3264Z" fill="#0A0A0A"/>
<path d="M208.472 160.452C210.624 161.694 211.361 164.446 210.119 166.599C208.876 168.751 206.124 169.489 203.972 168.246C201.819 167.003 201.082 164.251 202.324 162.099C203.567 159.946 206.319 159.209 208.472 160.452Z" fill="#0A0A0A"/>
<path d="M45.0096 84.2045C47.345 85.0545 48.5492 87.6368 47.6992 89.9722C46.8491 92.3076 44.2669 93.5118 41.9315 92.6617C39.5961 91.8117 38.3919 89.2294 39.2419 86.894C40.0919 84.5586 42.6742 83.3545 45.0096 84.2045Z" fill="#0A0A0A"/>
<path d="M214.389 145.854C216.725 146.704 217.929 149.286 217.079 151.621C216.229 153.957 213.646 155.161 211.311 154.311C208.976 153.461 207.771 150.878 208.621 148.543C209.471 146.208 212.054 145.004 214.389 145.854Z" fill="#0A0A0A"/>
<path d="M40.1706 99.1488C42.6182 99.5804 44.2524 101.914 43.8208 104.362C43.3893 106.809 41.0553 108.444 38.6078 108.012C36.1603 107.581 34.526 105.247 34.9576 102.799C35.3891 100.352 37.7231 98.7172 40.1706 99.1488Z" fill="#0A0A0A"/>
<path d="M217.682 130.449C220.13 130.881 221.764 133.215 221.332 135.662C220.901 138.11 218.567 139.744 216.119 139.313C213.672 138.881 212.038 136.547 212.469 134.1C212.901 131.652 215.235 130.018 217.682 130.449Z" fill="#0A0A0A"/>
<path d="M38 114.5C40.4853 114.5 42.5 116.515 42.5 119C42.5 121.485 40.4853 123.5 38 123.5C35.5147 123.5 33.5 121.485 33.5 119C33.5 116.515 35.5147 114.5 38 114.5Z" fill="#0A0A0A"/>
<path d="M218 114.5C220.485 114.5 222.5 116.515 222.5 119C222.5 121.485 220.485 123.5 218 123.5C215.515 123.5 213.5 121.485 213.5 119C213.5 116.515 215.515 114.5 218 114.5Z" fill="#0A0A0A"/>
<path d="M38.5643 130.406C41.0119 129.974 43.3458 131.609 43.7774 134.056C44.209 136.504 42.5747 138.838 40.1272 139.269C37.6797 139.701 35.3457 138.066 34.9141 135.619C34.4826 133.171 36.1168 130.837 38.5643 130.406Z" fill="#0A0A0A"/>
<path d="M216.076 99.106C218.523 98.6745 220.857 100.309 221.289 102.756C221.72 105.204 220.086 107.538 217.639 107.969C215.191 108.401 212.857 106.767 212.426 104.319C211.994 101.872 213.628 99.5376 216.076 99.106Z" fill="#0A0A0A"/>
<path d="M41.8458 145.768C44.1812 144.918 46.7635 146.122 47.6135 148.457C48.4635 150.793 47.2594 153.375 44.924 154.225C42.5886 155.075 40.0063 153.871 39.1563 151.535C38.3062 149.2 39.5104 146.618 41.8458 145.768Z" fill="#0A0A0A"/>
<path d="M211.225 84.119C213.561 83.2689 216.143 84.4731 216.993 86.8085C217.843 89.1439 216.639 91.7262 214.304 92.5762C211.968 93.4262 209.386 92.2221 208.536 89.8867C207.686 87.5513 208.89 84.969 211.225 84.119Z" fill="#0A0A0A"/>
<path d="M47.7451 160.327C49.8974 159.084 52.6496 159.822 53.8922 161.974C55.1349 164.127 54.3974 166.879 52.2451 168.121C50.0928 169.364 47.3406 168.627 46.098 166.474C44.8554 164.322 45.5928 161.57 47.7451 160.327Z" fill="#0A0A0A"/>
<path d="M203.846 70.2019C205.998 68.9592 208.751 69.6967 209.993 71.849C211.236 74.0013 210.498 76.7535 208.346 77.9961C206.194 79.2388 203.442 78.5013 202.199 76.349C200.956 74.1967 201.694 71.4445 203.846 70.2019Z" fill="#0A0A0A"/>
<path d="M56.0835 173.64C57.9873 172.043 60.8257 172.291 62.4232 174.195C64.0207 176.099 63.7724 178.937 61.8685 180.535C59.9647 182.132 57.1263 181.884 55.5288 179.98C53.9313 178.076 54.1796 175.238 56.0835 173.64Z" fill="#0A0A0A"/>
<path d="M194.163 57.7777C196.067 56.1802 198.905 56.4285 200.502 58.3323C202.1 60.2362 201.852 63.0746 199.948 64.6721C198.044 66.2696 195.206 66.0212 193.608 64.1174C192.011 62.2136 192.259 59.3752 194.163 57.7777Z" fill="#0A0A0A"/>
<path d="M66.6063 185.304C68.2038 183.4 71.0422 183.152 72.9461 184.749C74.8499 186.347 75.0982 189.185 73.5007 191.089C71.9032 192.993 69.0648 193.241 67.161 191.644C65.2571 190.046 65.0088 187.208 66.6063 185.304Z" fill="#0A0A0A"/>
<path d="M182.469 47.2239C184.066 45.3201 186.905 45.0718 188.809 46.6693C190.712 48.2668 190.961 51.1052 189.363 53.009C187.766 54.9129 184.927 55.1612 183.024 53.5637C181.12 51.9662 180.871 49.1278 182.469 47.2239Z" fill="#0A0A0A"/>
<path d="M169.12 38.8611C170.362 36.7088 173.114 35.9713 175.267 37.214C177.419 38.4566 178.156 41.2088 176.914 43.3611C175.671 45.5134 172.919 46.2509 170.767 45.0082C168.614 43.7656 167.877 41.0134 169.12 38.8611Z" fill="#0A0A0A"/>
<path d="M154.521 32.9431C155.371 30.6077 157.954 29.4036 160.289 30.2536C162.624 31.1036 163.829 33.6859 162.979 36.0213C162.129 38.3567 159.546 39.5608 157.211 38.7108C154.875 37.8608 153.671 35.2785 154.521 32.9431Z" fill="#0A0A0A"/>
<path d="M139.117 29.6506C139.549 27.203 141.883 25.5688 144.331 26.0003C146.778 26.4319 148.412 28.7659 147.981 31.2134C147.549 33.6609 145.215 35.2952 142.768 34.8636C140.32 34.432 138.686 32.0981 139.117 29.6506Z" fill="#0A0A0A"/>
<path d="M165.132 173.463C165.933 174.472 166.565 175.644 166.969 176.948C170.265 187.584 175.026 196.406 179.099 202.705C180.312 200.826 181.761 199.034 183.212 197.443C186.405 193.943 190.625 190.307 194.644 188.046C199.038 185.574 204.563 186.506 207.903 190.283C211.243 194.06 211.492 199.657 208.502 203.716C201.196 213.631 195.242 219.193 186.262 227.85C184.198 229.84 181.421 230.918 178.555 230.842C175.689 230.767 172.973 229.543 171.016 227.447L178.837 220.148L171.992 226.533C171.079 227.385 171.017 227.44 171.012 227.443C171.012 227.442 171.009 227.44 171.008 227.439C171.005 227.435 171.001 227.432 170.998 227.428C170.991 227.421 170.984 227.413 170.975 227.403C170.958 227.385 170.938 227.363 170.914 227.336C170.866 227.284 170.804 227.216 170.729 227.133C170.58 226.968 170.378 226.741 170.129 226.455C169.632 225.884 168.945 225.074 168.114 224.039C166.452 221.972 164.2 218.992 161.705 215.203C156.733 207.651 150.698 196.73 146.531 183.281C146.441 182.991 146.364 182.699 146.3 182.408C153.099 180.433 159.441 177.387 165.132 173.463Z" fill="#0A0A0A"/>
<path d="M96.9552 177.189C103.205 180.559 110.064 182.944 117.326 184.134C113.984 191.637 109.55 198.075 105.114 203.525C101.343 203.407 97.5626 203.767 94.1934 204.485C90.2852 205.318 86.7208 206.678 84.3814 208.508C83.481 209.213 83.3223 210.515 84.0269 211.415C84.7318 212.316 86.0336 212.474 86.9342 211.77C88.5635 210.495 91.427 209.309 95.0567 208.535C98.6384 207.772 102.765 207.452 106.766 207.76C113.3 208.263 118.846 210.342 121.701 214.217C123.367 216.939 123.763 220.328 122.635 223.443C121.102 227.678 117.08 230.5 112.576 230.5H90.0518C89.9031 230.503 89.7543 230.503 89.606 230.5H76.6847C72.9467 230.5 69.4795 228.549 67.5396 225.354C65.6 222.158 65.4686 218.183 67.193 214.866C69.0558 211.284 72.0145 207.927 74.5352 205.213C75.8865 203.759 77.3653 202.229 78.8126 200.727C80.2875 199.195 81.7762 197.644 83.2804 196.017C88.5062 190.364 93.495 184.226 96.9552 177.189Z" fill="#0A0A0A"/>
<path d="M186.5 119.5C186.5 87.1913 160.309 60.9999 128 60.9999C95.6914 60.9999 69.5 87.1913 69.5 119.5C69.5 151.809 95.6914 178 128 178C160.309 178 186.5 151.809 186.5 119.5ZM200.5 119.5C200.5 159.541 168.041 192 128 192C87.9594 192 55.5 159.541 55.5 119.5C55.5 79.4593 87.9594 46.9999 128 46.9999C168.041 46.9999 200.5 79.4593 200.5 119.5Z" fill="#0A0A0A"/>
<path d="M123 102.5C123 114.374 121.704 124 115 124C108.296 124 107 114.374 107 102.5C107 90.6258 108.296 81 115 81C120.561 81 123 90.6258 123 102.5Z" fill="#0A0A0A"/>
<path d="M149 102.5C149 114.374 147.704 124 141 124C134.296 124 133 114.374 133 102.5C133 90.6258 134.296 81 141 81C146.561 81 149 90.6258 149 102.5Z" fill="#0A0A0A"/>
<path d="M96 119.5C96 137.173 110.327 151.5 128 151.5C145.673 151.5 160 137.173 160 119.5H176C176 146.01 154.51 167.5 128 167.5C101.49 167.5 80 146.01 80 119.5H96Z" fill="#0A0A0A"/>
<path d="M96 105.5V113.5H80V105.5H96ZM176 105.5V113.5H160V105.5H176Z" fill="#EB2E31"/>
<path d="M256 175.552V87.4879H283.648V155.328H314.88L313.6 175.552H256Z" fill="#0A0A0A"/>
<path d="M347.665 176.576C341.948 176.576 337.297 175.552 333.713 173.504C330.214 171.456 327.654 168.683 326.033 165.184C324.412 161.685 323.601 157.76 323.601 153.408V111.424H350.609V149.696C350.609 151.659 351.164 153.195 352.273 154.304C353.468 155.328 354.876 155.84 356.497 155.84C358.204 155.84 359.953 155.328 361.745 154.304L363.153 172.096C361.276 173.547 358.844 174.656 355.857 175.424C352.87 176.192 350.14 176.576 347.665 176.576ZM337.169 104.384C333.244 104.384 329.873 103.147 327.057 100.672C324.241 98.1119 322.833 94.9972 322.833 91.3279C322.833 88.7679 323.516 86.5492 324.881 84.6719C326.246 82.7092 328.038 81.1732 330.257 80.0639C332.476 78.9546 334.78 78.3999 337.169 78.3999C339.814 78.3999 342.204 78.9972 344.337 80.1919C346.556 81.3866 348.305 82.9652 349.585 84.9279C350.95 86.8906 351.633 89.0239 351.633 91.3279C351.633 93.8879 350.908 96.1492 349.457 98.1119C348.092 100.075 346.3 101.611 344.081 102.72C341.948 103.829 339.644 104.384 337.169 104.384Z" fill="#0A0A0A"/>
<path d="M382.083 175.552L359.683 111.424H389.379L400.515 149.824L411.395 111.424H434.819L413.187 175.552H382.083Z" fill="#0A0A0A"/>
<path d="M479.543 158.656C482.018 158.656 484.62 158.4 487.351 157.888C490.167 157.376 493.026 156.437 495.927 155.072L498.999 171.584C495.842 173.205 492.386 174.443 488.631 175.296C484.962 176.149 480.738 176.576 475.959 176.576C467.34 176.576 460.087 175.168 454.199 172.352C448.396 169.536 444.002 165.653 441.015 160.704C438.028 155.755 436.535 150.037 436.535 143.552C436.535 136.896 438.114 131.093 441.271 126.144C444.514 121.195 448.823 117.355 454.199 114.624C459.575 111.893 465.506 110.528 471.991 110.528C481.634 110.528 489.015 113.557 494.135 119.616C499.255 125.589 501.815 134.123 501.815 145.216L463.671 150.08C466.487 155.797 471.778 158.656 479.543 158.656ZM461.623 138.304L481.719 134.08C481.378 131.349 480.439 129.344 478.903 128.064C477.367 126.699 475.447 126.016 473.143 126.016C469.73 126.016 466.999 127.211 464.951 129.6C462.988 131.904 461.879 134.805 461.623 138.304Z" fill="#0A0A0A"/>
<path d="M537.63 177.6C532.254 177.6 526.793 176.917 521.246 175.552C515.699 174.272 511.006 172.523 507.166 170.304L511.774 149.44C516.723 152.085 521.331 153.835 525.598 154.688C529.95 155.456 533.961 155.84 537.63 155.84C541.043 155.84 543.603 155.285 545.31 154.176C547.102 153.067 547.998 151.573 547.998 149.696C547.998 147.989 547.017 146.667 545.054 145.728C543.091 144.704 540.531 143.765 537.374 142.912C534.302 142.059 531.017 141.077 527.518 139.968C524.019 138.773 520.691 137.237 517.534 135.36C514.462 133.397 511.945 130.837 509.982 127.68C508.019 124.437 507.038 120.384 507.038 115.52C507.038 109.376 508.531 104.085 511.518 99.6479C514.505 95.1252 518.771 91.6692 524.318 89.2799C529.865 86.8052 536.393 85.5679 543.902 85.5679C548.937 85.5679 553.843 86.2506 558.622 87.6159C563.486 88.8959 567.369 90.6452 570.27 92.8639L565.918 111.68C561.566 109.888 557.641 108.608 554.142 107.84C550.729 106.987 547.486 106.56 544.414 106.56C540.83 106.56 538.099 107.072 536.222 108.096C534.345 109.12 533.406 110.485 533.406 112.192C533.406 113.813 534.387 115.136 536.35 116.16C538.313 117.184 540.83 118.165 543.902 119.104C546.974 120.043 550.259 121.109 553.758 122.304C557.257 123.499 560.542 125.077 563.614 127.04C566.686 129.003 569.203 131.563 571.166 134.72C573.129 137.877 574.11 141.845 574.11 146.624C574.11 156.523 570.867 164.16 564.382 169.536C557.982 174.912 549.065 177.6 537.63 177.6Z" fill="#0A0A0A"/>
<path d="M608.127 176.576C602.068 176.576 597.119 175.552 593.279 173.504C589.524 171.456 586.794 168.683 585.087 165.184C583.38 161.685 582.527 157.76 582.527 153.408V127.296H574.335V111.424H584.447L596.351 91.1999H609.535V111.424H624.383V127.296H609.535V149.696C609.535 151.659 610.175 153.195 611.455 154.304C612.735 155.328 614.399 155.84 616.447 155.84C618.495 155.84 620.543 155.328 622.591 154.304L624.511 172.096C622.463 173.547 619.86 174.656 616.703 175.424C613.546 176.192 610.687 176.576 608.127 176.576Z" fill="#0A0A0A"/>
<path d="M657.415 176.576C651.698 176.576 647.047 175.552 643.463 173.504C639.964 171.456 637.404 168.683 635.783 165.184C634.162 161.685 633.351 157.76 633.351 153.408V111.424H660.359V149.696C660.359 151.659 660.914 153.195 662.023 154.304C663.218 155.328 664.626 155.84 666.247 155.84C667.954 155.84 669.703 155.328 671.495 154.304L672.903 172.096C671.026 173.547 668.594 174.656 665.607 175.424C662.62 176.192 659.89 176.576 657.415 176.576ZM646.919 104.384C642.994 104.384 639.623 103.147 636.807 100.672C633.991 98.1119 632.583 94.9972 632.583 91.3279C632.583 88.7679 633.266 86.5492 634.631 84.6719C635.996 82.7092 637.788 81.1732 640.007 80.0639C642.226 78.9546 644.53 78.3999 646.919 78.3999C649.564 78.3999 651.954 78.9972 654.087 80.1919C656.306 81.3866 658.055 82.9652 659.335 84.9279C660.7 86.8906 661.383 89.0239 661.383 91.3279C661.383 93.8879 660.658 96.1492 659.207 98.1119C657.842 100.075 656.05 101.611 653.831 102.72C651.698 103.829 649.394 104.384 646.919 104.384Z" fill="#0A0A0A"/>
<path d="M710.476 176.576C703.308 176.576 697.121 175.168 691.916 172.352C686.711 169.536 682.7 165.696 679.884 160.832C677.068 155.883 675.66 150.208 675.66 143.808C675.66 137.493 677.111 131.819 680.012 126.784C682.913 121.749 686.967 117.781 692.172 114.88C697.463 111.979 703.564 110.528 710.476 110.528C718.753 110.528 725.281 112.235 730.06 115.648L727.244 133.056C725.111 132.117 723.105 131.477 721.228 131.136C719.351 130.709 717.559 130.496 715.852 130.496C711.671 130.496 708.343 131.691 705.868 134.08C703.479 136.384 702.284 139.541 702.284 143.552C702.284 147.477 703.479 150.677 705.868 153.152C708.257 155.541 711.415 156.736 715.34 156.736C718.753 156.736 722.764 156.011 727.372 154.56L729.804 172.48C726.988 173.845 724.044 174.869 720.972 175.552C717.985 176.235 714.487 176.576 710.476 176.576Z" fill="#0A0A0A"/>
<path d="M766.618 175.552H739.61V91.1999L766.618 87.2319V131.136L796.698 106.688L810.522 124.48L792.474 139.584C793.669 145.643 795.418 149.909 797.722 152.384C800.026 154.773 803.013 155.968 806.682 155.968C808.218 155.968 810.053 155.712 812.186 155.2L810.266 175.808C808.645 176.149 807.194 176.363 805.914 176.448C804.634 176.533 803.397 176.576 802.202 176.576C793.754 176.576 787.055 174.571 782.106 170.56C777.242 166.464 773.658 160.491 771.354 152.64L766.618 156.736V175.552Z" fill="#0A0A0A"/>
<path d="M857.668 158.656C860.143 158.656 862.745 158.4 865.476 157.888C868.292 157.376 871.151 156.437 874.052 155.072L877.124 171.584C873.967 173.205 870.511 174.443 866.756 175.296C863.087 176.149 858.863 176.576 854.084 176.576C845.465 176.576 838.212 175.168 832.324 172.352C826.521 169.536 822.127 165.653 819.14 160.704C816.153 155.755 814.66 150.037 814.66 143.552C814.66 136.896 816.239 131.093 819.396 126.144C822.639 121.195 826.948 117.355 832.324 114.624C837.7 111.893 843.631 110.528 850.116 110.528C859.759 110.528 867.14 113.557 872.26 119.616C877.38 125.589 879.94 134.123 879.94 145.216L841.796 150.08C844.612 155.797 849.903 158.656 857.668 158.656ZM839.748 138.304L859.844 134.08C859.503 131.349 858.564 129.344 857.028 128.064C855.492 126.699 853.572 126.016 851.268 126.016C847.855 126.016 845.124 127.211 843.076 129.6C841.113 131.904 840.004 134.805 839.748 138.304Z" fill="#0A0A0A"/>
<path d="M888.86 175.552V111.424H915.484V127.424C917.191 121.621 919.836 117.355 923.42 114.624C927.089 111.893 931.441 110.528 936.476 110.528L939.676 133.184C937.628 132.928 935.623 132.8 933.66 132.8C921.799 132.8 915.868 137.664 915.868 147.392V175.552H888.86Z" fill="#0A0A0A"/>
</svg>
